# xmcd
#
# Track frame offsets:
# 150
# 19000
# 36312
# 54972
# 71901
# 88041
# 113057
# 134135
# 154517
# 174216
# 198526
#
# Disc length: 3004 seconds
#
#
# Revision: 1
# Processed by: cddbd v1.5.2PL0 Copyright (c) Steve Scherf et al.
# Submitted via: FreeRIP 2.96 
#
DISCID=930bba0b
DTITLE=Joe veras - Carta de verano
DYEAR=2003
DGENRE=BACHATA
TTITLE0=intentalo tu
TTITLE1=como me duele
TTITLE2=cartas del verano
TTITLE3=cloussp
TTITLE4=me voy
TTITLE5=coje cuadre
TTITLE6=me siento solo
TTITLE7=por ti
TTITLE8=que bien lo hiciste
TTITLE9=ahora
TTITLE10=como tiene que ser
EXTD=
EXTT0=
EXTT1=
EXTT2=
EXTT3=
EXTT4=
EXTT5=
EXTT6=
EXTT7=
EXTT8=
EXTT9=
EXTT10=
PLAYORDER=
